<svg width="181" height="45" viewBox="0 0 181 45" fill="none" xmlns="http://www.w3.org/2000/svg">
<path d="M25.0152 9.46922C21.883 6.34511 18.9042 3.35822 18.0162 0C17.1443 3.35822 14.1413 6.34511 11.0091 9.46922C6.31891 14.1594 0.999032 19.4712 0.999032 27.447C0.949683 29.7124 1.35326 31.9648 2.18607 34.0722C3.01889 36.1795 4.26417 38.0992 5.84888 39.7188C7.43358 41.3384 9.32574 42.6252 11.4145 43.5038C13.5032 44.3822 15.7462 44.8348 18.0122 44.8348C20.2781 44.8348 22.5211 44.3822 24.6099 43.5038C26.6985 42.6252 28.5907 41.3384 30.1755 39.7188C31.7601 38.0992 33.0054 36.1795 33.8383 34.0722C34.671 31.9648 35.0746 29.7124 35.0253 27.447C35.0253 19.4712 29.7054 14.1594 25.0152 9.46922ZM9.74979 28.997C9.22967 29.6511 8.78301 30.3604 8.4178 31.112C8.39068 31.1716 8.35048 31.2243 8.3001 31.2663C8.24982 31.3082 8.1907 31.3382 8.12719 31.3542H7.98187C7.60246 31.3542 7.17462 30.6115 7.17462 30.6115C7.0616 30.4339 6.95665 30.2482 6.85171 30.0545L6.77906 29.9011C5.79419 27.6488 6.64989 24.444 6.64989 24.444C7.07171 22.882 7.75992 21.4046 8.6842 20.0767C9.24888 19.2334 9.86354 18.4248 10.5248 17.6549L11.332 18.4622L15.1423 22.3532C15.2138 22.4331 15.2533 22.5366 15.2533 22.6438C15.2533 22.751 15.2138 22.8545 15.1423 22.9344L11.1625 27.3502L9.74979 28.997ZM18.2099 40.1453C17.0777 40.1387 15.9715 39.8057 15.0238 39.186C14.0762 38.5665 13.3273 37.6867 12.8672 36.6522C12.4071 35.6177 12.2551 34.4724 12.4295 33.3537C12.604 32.235 13.0974 31.1904 13.8507 30.3451C15.0939 28.8678 16.6115 27.4147 18.2584 25.5015C20.2119 27.5843 21.4874 29.0131 22.7387 30.5792C22.8367 30.7 22.9232 30.8297 22.997 30.9667C23.6814 31.9406 24.048 33.1023 24.0465 34.2926C24.0486 35.0604 23.8992 35.8212 23.6068 36.5311C23.3144 37.2411 22.8849 37.8864 22.3427 38.4301C21.8005 38.9738 21.1564 39.4052 20.4472 39.6995C19.738 39.9938 18.9777 40.1453 18.2099 40.1453ZM29.2533 30.7891C29.2158 30.9098 29.1452 31.0176 29.0496 31.1003C28.9541 31.183 28.8373 31.2375 28.7125 31.2573H28.5994C28.3678 31.1822 28.1723 31.0241 28.0505 30.8133C27.0304 29.2831 25.874 27.8485 24.5954 26.5267L17.8628 19.5439C16.7761 18.5371 15.7415 17.4754 14.7629 16.3633C14.7389 16.321 14.7119 16.2806 14.6822 16.2422C14.5061 15.9947 14.3674 15.7227 14.2705 15.4349C14.2705 15.3865 14.2705 15.33 14.2705 15.2815C14.1988 14.8426 14.2348 14.393 14.3754 13.9711C14.516 13.5492 14.7571 13.1678 15.0777 12.8597C16.0788 11.8587 17.0878 10.8496 18.0404 9.8002C19.0899 10.9627 20.2119 12.0767 21.3179 13.1826C23.5741 15.2836 25.6158 17.6039 27.4128 20.109C28.9299 22.2572 29.755 24.8173 29.778 27.447C29.7653 28.5805 29.5886 29.7062 29.2533 30.7891Z" fill="#0075FF"/>
<path d="M110.682 16.9526H105.136V27.334C105.136 30.3693 103.829 32.8315 100.793 32.8315C97.7579 32.8315 96.4339 30.3693 96.4339 27.334V16.9526H90.8961V27.334C90.8961 33.3401 94.7548 38.2079 100.761 38.2079C106.767 38.2079 110.682 33.3643 110.682 27.334V16.9526Z" fill="#0075FF"/>
<path d="M166.335 10.5994H160.805V37.6751H166.335V10.5994Z" fill="#0075FF"/>
<path d="M170.42 11.5923V10.6236H174.723V11.5923H173.148V15.8789H171.994V11.5923H170.42Z" fill="#0075FF"/>
<path d="M176.959 10.6236L178.186 14.2402H178.202L179.364 10.6236H180.995V15.887H179.913V12.1574H179.897L178.605 15.887H177.717L176.426 12.1897H176.41V15.887H175.328V10.6236H176.959Z" fill="#0075FF"/>
<path d="M86.3754 16.7103C81.6045 15.6044 78.6015 20.343 78.4723 20.6013C78.4158 20.7224 78.4077 20.7951 78.1978 20.787C77.9879 20.7789 78.0041 20.6013 78.0041 20.6013L77.4148 16.9525H72.4582V37.6508H78.0122V26.4621C78.0122 25.5418 80.4339 21.1583 85.2775 22.2885C86.5425 22.525 87.7268 23.0808 88.7165 23.903V17.5822C87.99 17.1885 87.2134 16.8953 86.4077 16.7103" fill="#0075FF"/>
<path d="M123.606 21.9495C124.704 21.9512 125.775 22.2779 126.686 22.8887C127.598 23.4994 128.307 24.3666 128.725 25.3806C129.144 26.3946 129.252 27.5098 129.036 28.5853C128.821 29.6608 128.291 30.6482 127.514 31.4227C126.738 32.1972 125.749 32.724 124.673 32.9363C123.596 33.1488 122.481 33.0373 121.469 32.6161C120.456 32.1949 119.591 31.4828 118.982 30.5698C118.375 29.657 118.051 28.5843 118.053 27.4874C118.053 26.7595 118.196 26.0387 118.475 25.3663C118.754 24.6938 119.163 24.083 119.678 23.5687C120.193 23.0544 120.804 22.6466 121.477 22.3688C122.149 22.091 122.87 21.9485 123.598 21.9495H123.606ZM118.214 44.4642V34.2361C118.214 34.2361 118.214 34.0182 118.424 34.0101C118.634 34.002 118.642 34.1312 118.69 34.2361C119.312 35.7207 120.457 36.9259 121.907 37.6236C123.357 38.3213 125.014 38.4631 126.561 38.0222C128.522 37.4694 130.289 36.3804 131.665 34.8777C133.04 33.3752 133.969 31.5185 134.347 29.5168C134.725 27.515 134.537 25.4476 133.803 23.547C133.07 21.6463 131.821 19.9881 130.197 18.7585C128.573 17.529 126.638 16.7772 124.609 16.5875C122.581 16.3979 120.541 16.778 118.716 17.685C116.892 18.592 115.358 19.9901 114.285 21.7218C113.212 23.4536 112.644 25.4503 112.644 27.4874V44.44L118.214 44.4642Z" fill="#0075FF"/>
<path d="M153.144 27.4874C153.146 28.5849 152.822 29.6583 152.213 30.5715C151.604 31.4848 150.738 32.1969 149.725 32.6176C148.711 33.0384 147.595 33.1489 146.518 32.9352C145.442 32.7215 144.453 32.1931 143.677 31.417C142.901 30.6409 142.372 29.652 142.159 28.5754C141.945 27.4989 142.056 26.3831 142.476 25.3694C142.897 24.3557 143.609 23.4896 144.523 22.8808C145.436 22.272 146.509 21.9479 147.606 21.9495C149.075 21.9516 150.482 22.5358 151.52 23.5739C152.558 24.612 153.142 26.0193 153.144 27.4874ZM152.991 37.6589H158.553V27.4874C158.553 25.4503 157.985 23.4536 156.912 21.7218C155.839 19.9901 154.304 18.592 152.481 17.685C150.656 16.778 148.616 16.3979 146.588 16.5875C144.559 16.7772 142.624 17.529 141 18.7585C139.376 19.9881 138.127 21.6463 137.394 23.547C136.66 25.4476 136.472 27.515 136.85 29.5168C137.227 31.5185 138.157 33.3752 139.532 34.8777C140.908 36.3804 142.675 37.4694 144.636 38.0222C146.185 38.4635 147.842 38.3219 149.294 37.6244C150.745 36.9267 151.891 35.7213 152.515 34.2361C152.555 34.1312 152.595 34.0101 152.773 34.0101C152.951 34.0101 152.983 34.2361 152.983 34.2361" fill="#0075FF"/>
<path d="M56.5712 15.2735H54.3351V32.9284L56.6277 32.9849C61.3341 32.9849 64.3613 32.557 64.3613 24.1049C64.3613 16.0323 61.6892 15.2735 56.5712 15.2735ZM55.0858 37.6186H48.7407V10.5832H55.5217C63.7316 10.5832 69.9556 12.0928 69.9556 24.1049C69.9556 36.1171 63.3603 37.6186 55.0858 37.6186Z" fill="#0075FF"/>
</svg>
