<svg width="224" height="56" viewBox="0 0 224 56" fill="none" xmlns="http://www.w3.org/2000/svg">
<path d="M30.75 11.73C26.87 7.86 23.18 4.16 22.08 0C21 4.16 17.28 7.86 13.4 11.73C7.58999 17.54 0.999995 24.12 0.999995 34C0.938864 36.8062 1.43879 39.5964 2.47044 42.2069C3.50209 44.8173 5.04469 47.1954 7.00774 49.2017C8.97079 51.208 11.3147 52.802 13.9021 53.8903C16.4895 54.9785 19.2681 55.5391 22.075 55.5391C24.8819 55.5391 27.6605 54.9785 30.2479 53.8903C32.8352 52.802 35.1792 51.208 37.1423 49.2017C39.1053 47.1954 40.6479 44.8173 41.6796 42.2069C42.7112 39.5964 43.2111 36.8062 43.15 34C43.15 24.12 36.56 17.54 30.75 11.73ZM11.84 35.92C11.1957 36.7303 10.6424 37.6089 10.19 38.54C10.1564 38.6138 10.1066 38.6791 10.0442 38.7311C9.98191 38.783 9.90868 38.8202 9.83 38.84H9.64999C9.17999 38.84 8.65 37.92 8.65 37.92C8.51 37.7 8.38 37.47 8.25 37.23L8.16 37.04C6.94 34.25 8 30.28 8 30.28C8.52253 28.3451 9.37504 26.5149 10.52 24.87C11.2195 23.8254 11.9809 22.8237 12.8 21.87L13.8 22.87L18.52 27.69C18.6085 27.789 18.6575 27.9172 18.6575 28.05C18.6575 28.1828 18.6085 28.311 18.52 28.41L13.59 33.88L11.84 35.92ZM22.32 49.73C20.9175 49.7218 19.5471 49.3093 18.3732 48.5417C17.1993 47.7742 16.2717 46.6844 15.7017 45.4029C15.1317 44.1214 14.9434 42.7027 15.1595 41.3169C15.3756 39.9311 15.9869 38.6371 16.92 37.59C18.46 35.76 20.34 33.96 22.38 31.59C24.8 34.17 26.38 35.94 27.93 37.88C28.0514 38.0296 28.1586 38.1903 28.25 38.36C29.0978 39.5664 29.5519 41.0055 29.55 42.48C29.5526 43.4311 29.3676 44.3735 29.0054 45.2529C28.6432 46.1324 28.1111 46.9318 27.4395 47.6053C26.7678 48.2788 25.9699 48.8132 25.0914 49.1777C24.2129 49.5423 23.2711 49.73 22.32 49.73V49.73ZM36 38.14C35.9535 38.2895 35.8661 38.4231 35.7477 38.5255C35.6293 38.628 35.4846 38.6954 35.33 38.72H35.19C34.9031 38.627 34.6609 38.4311 34.51 38.17C33.2464 36.2745 31.8139 34.4973 30.23 32.86L28.3 30.86L21.89 24.21C20.5439 22.9628 19.2622 21.6477 18.05 20.27C18.0202 20.2177 17.9868 20.1676 17.95 20.12C17.7319 19.8134 17.5601 19.4765 17.44 19.12C17.44 19.06 17.44 18.99 17.44 18.93C17.3512 18.3863 17.3958 17.8293 17.57 17.3067C17.7442 16.7841 18.0428 16.3116 18.44 15.93C19.68 14.69 20.93 13.44 22.11 12.14C23.41 13.58 24.8 14.96 26.17 16.33C28.9649 18.9326 31.494 21.8068 33.72 24.91C35.5993 27.5711 36.6215 30.7424 36.65 34C36.6342 35.4041 36.4153 36.7986 36 38.14V38.14Z" fill="#0063D7"/>
<path d="M136.87 21H130V33.86C130 37.62 128.38 40.67 124.62 40.67C120.86 40.67 119.22 37.62 119.22 33.86V21H112.36V33.86C112.36 41.3 117.14 47.33 124.58 47.33C132.02 47.33 136.87 41.33 136.87 33.86V21Z" fill="#0063D7"/>
<path d="M205.81 13.13H198.96V46.67H205.81V13.13Z" fill="#0063D7"/>
<path d="M210.87 14.36V13.16H216.2V14.36H214.25V19.67H212.82V14.36H210.87Z" fill="#0063D7"/>
<path d="M218.97 13.16L220.49 17.64H220.51L221.95 13.16H223.97V19.68H222.63V15.06H222.61L221.01 19.68H219.91L218.31 15.1H218.29V19.68H216.95V13.16H218.97Z" fill="#0063D7"/>
<path d="M106.76 20.6999C100.85 19.3299 97.13 25.1999 96.97 25.5199C96.9 25.6699 96.89 25.7599 96.63 25.7499C96.37 25.7399 96.39 25.5199 96.39 25.5199L95.66 20.9999H89.52V46.6399H96.4V32.7799C96.4 31.6399 99.4 26.2099 105.4 27.6099C106.967 27.9029 108.434 28.5914 109.66 29.6099V21.7799C108.76 21.2923 107.798 20.929 106.8 20.6999" fill="#0063D7"/>
<path d="M152.88 27.19C154.239 27.192 155.566 27.5968 156.695 28.3534C157.824 29.1099 158.703 30.1841 159.221 31.4402C159.739 32.6963 159.873 34.0778 159.606 35.4101C159.339 36.7423 158.683 37.9655 157.721 38.9249C156.759 39.8843 155.534 40.5368 154.201 40.7999C152.867 41.0631 151.486 40.925 150.232 40.4032C148.977 39.8814 147.906 38.9993 147.152 37.8684C146.399 36.7376 145.998 35.4088 146 34.05C146 33.1483 146.178 32.2554 146.523 31.4225C146.869 30.5895 147.375 29.8328 148.013 29.1957C148.651 28.5586 149.408 28.0535 150.242 27.7093C151.075 27.3652 151.968 27.1887 152.87 27.19H152.88ZM146.2 55.08V45.86V42.41C146.2 42.41 146.2 42.14 146.46 42.13C146.72 42.12 146.73 42.28 146.79 42.41C147.56 44.249 148.978 45.742 150.775 46.6062C152.571 47.4705 154.623 47.6462 156.54 47.1C158.969 46.4152 161.158 45.0662 162.862 43.2048C164.566 41.3435 165.717 39.0436 166.185 36.5639C166.653 34.0842 166.42 31.5232 165.511 29.1688C164.603 26.8144 163.056 24.7602 161.044 23.2371C159.032 21.7141 156.635 20.7827 154.122 20.5478C151.61 20.3129 149.082 20.7837 146.822 21.9073C144.563 23.0309 142.662 24.7627 141.333 26.9079C140.004 29.0531 139.3 31.5265 139.3 34.05V55.05L146.2 55.08Z" fill="#0063D7"/>
<path d="M189.47 34.05C189.472 35.4096 189.071 36.7392 188.316 37.8705C187.562 39.0018 186.489 39.8839 185.234 40.4051C183.978 40.9263 182.596 41.0632 181.262 40.7985C179.929 40.5337 178.704 39.8792 177.742 38.9178C176.781 37.9564 176.126 36.7314 175.862 35.3978C175.597 34.0642 175.734 32.6821 176.255 31.4263C176.776 30.1706 177.658 29.0978 178.79 28.3436C179.921 27.5895 181.25 27.188 182.61 27.19C184.429 27.1926 186.172 27.9162 187.458 29.2022C188.744 30.4881 189.467 32.2314 189.47 34.05V34.05ZM189.28 46.65H196.17V34.05C196.17 31.5265 195.466 29.0531 194.137 26.9079C192.808 24.7627 190.907 23.0309 188.648 21.9073C186.388 20.7837 183.86 20.3129 181.348 20.5478C178.835 20.7827 176.438 21.7141 174.426 23.2371C172.414 24.7602 170.867 26.8144 169.959 29.1688C169.05 31.5232 168.817 34.0842 169.285 36.5639C169.753 39.0436 170.904 41.3435 172.608 43.2048C174.312 45.0662 176.501 46.4152 178.93 47.1C180.849 47.6467 182.902 47.4713 184.7 46.6072C186.498 45.743 187.918 44.2498 188.69 42.41C188.74 42.28 188.79 42.13 189.01 42.13C189.23 42.13 189.27 42.41 189.27 42.41" fill="#0063D7"/>
<path d="M69.84 18.92H67.07V40.79L69.91 40.86C75.74 40.86 79.49 40.33 79.49 29.86C79.49 19.86 76.18 18.92 69.84 18.92V18.92ZM68 46.6H60.14V13.11H68.54C78.71 13.11 86.42 14.98 86.42 29.86C86.42 44.74 78.25 46.6 68 46.6Z" fill="#0063D7"/>
</svg>
